<?xml version="1.0"?>
<svg width="269" height="269" xmlns="http://www.w3.org/2000/svg">

 <g>
  <title>background</title>
  <rect fill="none" id="canvas_background" height="271" width="271" y="-1" x="-1"/>
 </g>
 <g>
  <title>Layer 1</title>
  <g id="svg_1">
   <path d="m253.163025,267.894043c8.134003,0 14.728973,-6.596069 14.728973,-14.730103l0,-237.43396c0,-8.136993 -6.595978,-14.72998 -14.728973,-14.72998l-237.433029,0c-8.138,0 -14.729996,6.593994 -14.729996,14.72998l0,237.43396c0,8.13501 6.593002,14.730103 14.729996,14.730103l237.433029,0l0,0z" fill="#3B5998" id="Blue_1_"/>
   <path d="m185.151001,267.894043l0,-103.355103l34.692017,0l5.19397,-40.280029l-39.887024,0l0,-25.716919c0,-11.662048 3.238037,-19.609009 19.962036,-19.609009l21.328979,-0.010071l0,-36.025909c-3.688995,-0.48999 -16.351013,-1.587006 -31.080017,-1.587006c-30.75296,0 -51.806946,18.770996 -51.806946,53.243958l0,29.705078l-34.781036,0l0,40.279907l34.781036,0l0,103.355103l41.596985,0z" fill="#FFFFFF" id="f"/>
  </g>
 </g>
</svg>