<?xml version="1.0"?>
<svg width="1422" height="158" xmlns="http://www.w3.org/2000/svg">

 <g>
  <title>background</title>
  <rect fill="none" id="canvas_background" height="160" width="1424" y="-1" x="-1"/>
 </g>
 <g>
  <title>Layer 1</title>
  <g id="svg_1">
   <path id="svg_2" d="m59,18l-8,-8l-8,8l0,52l8,8l8,-8l0,-52zm0,0" fill-opacity="0.25" fill="rgb(128, 128, 128)"/>
   <path id="svg_3" d="m60,1l-8,8l8,8l24,0l8,-8l-8,-8l-24,0zm0,0" fill-opacity="0.25" fill="rgb(128, 128, 128)"/>
   <path id="svg_4" d="m101,18l-8,-8l-8,8l0,52l8,8l8,-8l0,-52zm0,0" fill="rgb(255, 255, 255)"/>
   <path id="svg_5" d="m17,18l-8,-8l-8,8l0,52l8,8l8,-8l0,-52zm0,0" fill-opacity="0.25" fill="rgb(128, 128, 128)"/>
   <path id="svg_6" d="m60,71l-8,8l8,8l24,0l8,-8l-8,-8l-24,0zm0,0" fill-opacity="0.25" fill="rgb(128, 128, 128)"/>
   <path id="svg_7" d="m18,1l-8,8l8,8l24,0l8,-8l-8,-8l-24,0zm0,0" fill-opacity="0.25" fill="rgb(128, 128, 128)"/>
   <path id="svg_8" d="m18,71l-8,8l8,8l24,0l8,-8l-8,-8l-24,0zm0,0" fill-opacity="0.25" fill="rgb(128, 128, 128)"/>
   <path id="svg_9" d="m59,88l-8,-8l-8,8l0,52l8,8l8,-8l0,-52zm0,0" fill-opacity="0.25" fill="rgb(128, 128, 128)"/>
   <path id="svg_10" d="m101,88l-8,-8l-8,8l0,52l8,8l8,-8l0,-52zm0,0" fill="rgb(255, 255, 255)"/>
   <path id="svg_11" d="m17,88l-8,-8l-8,8l0,52l8,8l8,-8l0,-52zm0,0" fill-opacity="0.25" fill="rgb(128, 128, 128)"/>
   <path id="svg_12" d="m60,141l-8,8l8,8l24,0l8,-8l-8,-8l-24,0zm0,0" fill-opacity="0.25" fill="rgb(128, 128, 128)"/>
   <path id="svg_13" d="m18,141l-8,8l8,8l24,0l8,-8l-8,-8l-24,0zm0,0" fill-opacity="0.25" fill="rgb(128, 128, 128)"/>
   <path id="svg_14" d="m24,19l17,30l0,20l-5,0l-17,-30l0,-20" fill-opacity="0.25" fill="rgb(128, 128, 128)"/>
   <path id="svg_15" d="m78,19l-17,30l0,20l5,0l17,-30l0,-20" fill="rgb(255, 255, 255)"/>
   <path id="svg_16" d="m66,89l17,30l0,20l-5,0l-17,-30l0,-20" fill-opacity="0.25" fill="rgb(128, 128, 128)"/>
   <path id="svg_17" d="m36,89l-17,30l0,20l5,0l17,-30l0,-20" fill-opacity="0.25" fill="rgb(128, 128, 128)"/>
  </g>
  <g id="svg_18">
   <path id="svg_19" d="m179,18l-8,-8l-8,8l0,52l8,8l8,-8l0,-52zm0,0" fill="rgb(255, 255, 255)"/>
   <path id="svg_20" d="m180,1l-8,8l8,8l24,0l8,-8l-8,-8l-24,0zm0,0" fill-opacity="0.25" fill="rgb(128, 128, 128)"/>
   <path id="svg_21" d="m221,18l-8,-8l-8,8l0,52l8,8l8,-8l0,-52zm0,0" fill-opacity="0.25" fill="rgb(128, 128, 128)"/>
   <path id="svg_22" d="m137,18l-8,-8l-8,8l0,52l8,8l8,-8l0,-52zm0,0" fill-opacity="0.25" fill="rgb(128, 128, 128)"/>
   <path id="svg_23" d="m180,71l-8,8l8,8l24,0l8,-8l-8,-8l-24,0zm0,0" fill="rgb(255, 255, 255)"/>
   <path id="svg_24" d="m138,1l-8,8l8,8l24,0l8,-8l-8,-8l-24,0zm0,0" fill-opacity="0.25" fill="rgb(128, 128, 128)"/>
   <path id="svg_25" d="m138,71l-8,8l8,8l24,0l8,-8l-8,-8l-24,0zm0,0" fill="rgb(255, 255, 255)"/>
   <path id="svg_26" d="m179,88l-8,-8l-8,8l0,52l8,8l8,-8l0,-52zm0,0" fill="rgb(255, 255, 255)"/>
   <path id="svg_27" d="m221,88l-8,-8l-8,8l0,52l8,8l8,-8l0,-52zm0,0" fill-opacity="0.25" fill="rgb(128, 128, 128)"/>
   <path id="svg_28" d="m137,88l-8,-8l-8,8l0,52l8,8l8,-8l0,-52zm0,0" fill-opacity="0.25" fill="rgb(128, 128, 128)"/>
   <path id="svg_29" d="m180,141l-8,8l8,8l24,0l8,-8l-8,-8l-24,0zm0,0" fill-opacity="0.25" fill="rgb(128, 128, 128)"/>
   <path id="svg_30" d="m138,141l-8,8l8,8l24,0l8,-8l-8,-8l-24,0zm0,0" fill-opacity="0.25" fill="rgb(128, 128, 128)"/>
   <path id="svg_31" d="m144,19l17,30l0,20l-5,0l-17,-30l0,-20" fill-opacity="0.25" fill="rgb(128, 128, 128)"/>
   <path id="svg_32" d="m198,19l-17,30l0,20l5,0l17,-30l0,-20" fill-opacity="0.25" fill="rgb(128, 128, 128)"/>
   <path id="svg_33" d="m186,89l17,30l0,20l-5,0l-17,-30l0,-20" fill-opacity="0.25" fill="rgb(128, 128, 128)"/>
   <path id="svg_34" d="m156,89l-17,30l0,20l5,0l17,-30l0,-20" fill-opacity="0.25" fill="rgb(128, 128, 128)"/>
  </g>
  <g id="svg_35">
   <path id="svg_36" d="m299,18l-8,-8l-8,8l0,52l8,8l8,-8l0,-52zm0,0" fill-opacity="0.25" fill="rgb(128, 128, 128)"/>
   <path id="svg_37" d="m300,1l-8,8l8,8l24,0l8,-8l-8,-8l-24,0zm0,0" fill-opacity="0.25" fill="rgb(128, 128, 128)"/>
   <path id="svg_38" d="m341,18l-8,-8l-8,8l0,52l8,8l8,-8l0,-52zm0,0" fill="rgb(0, 208, 255)"/>
   <path id="svg_39" d="m257,18l-8,-8l-8,8l0,52l8,8l8,-8l0,-52zm0,0" fill="rgb(0, 208, 255)"/>
   <path id="svg_40" d="m300,71l-8,8l8,8l24,0l8,-8l-8,-8l-24,0zm0,0" fill-opacity="0.25" fill="rgb(128, 128, 128)"/>
   <path id="svg_41" d="m258,1l-8,8l8,8l24,0l8,-8l-8,-8l-24,0zm0,0" fill-opacity="0.25" fill="rgb(128, 128, 128)"/>
   <path id="svg_42" d="m258,71l-8,8l8,8l24,0l8,-8l-8,-8l-24,0zm0,0" fill-opacity="0.25" fill="rgb(128, 128, 128)"/>
   <path id="svg_43" d="m299,88l-8,-8l-8,8l0,52l8,8l8,-8l0,-52zm0,0" fill-opacity="0.25" fill="rgb(128, 128, 128)"/>
   <path id="svg_44" d="m341,88l-8,-8l-8,8l0,52l8,8l8,-8l0,-52zm0,0" fill="rgb(0, 208, 255)"/>
   <path id="svg_45" d="m257,88l-8,-8l-8,8l0,52l8,8l8,-8l0,-52zm0,0" fill="rgb(0, 208, 255)"/>
   <path id="svg_46" d="m300,141l-8,8l8,8l24,0l8,-8l-8,-8l-24,0zm0,0" fill-opacity="0.25" fill="rgb(128, 128, 128)"/>
   <path id="svg_47" d="m258,141l-8,8l8,8l24,0l8,-8l-8,-8l-24,0zm0,0" fill-opacity="0.25" fill="rgb(128, 128, 128)"/>
   <path id="svg_48" d="m264,19l17,30l0,20l-5,0l-17,-30l0,-20" fill="rgb(0, 208, 255)"/>
   <path id="svg_49" d="m318,19l-17,30l0,20l5,0l17,-30l0,-20" fill-opacity="0.25" fill="rgb(128, 128, 128)"/>
   <path id="svg_50" d="m306,89l17,30l0,20l-5,0l-17,-30l0,-20" fill="rgb(0, 208, 255)"/>
   <path id="svg_51" d="m276,89l-17,30l0,20l5,0l17,-30l0,-20" fill-opacity="0.25" fill="rgb(128, 128, 128)"/>
  </g>
  <g id="svg_52">
   <path id="svg_53" d="m419,18l-8,-8l-8,8l0,52l8,8l8,-8l0,-52zm0,0" fill-opacity="0.25" fill="rgb(128, 128, 128)"/>
   <path id="svg_54" d="m420,1l-8,8l8,8l24,0l8,-8l-8,-8l-24,0zm0,0" fill="rgb(0, 208, 255)"/>
   <path id="svg_55" d="m461,18l-8,-8l-8,8l0,52l8,8l8,-8l0,-52zm0,0" fill-opacity="0.25" fill="rgb(128, 128, 128)"/>
   <path id="svg_56" d="m377,18l-8,-8l-8,8l0,52l8,8l8,-8l0,-52zm0,0" fill="rgb(0, 208, 255)"/>
   <path id="svg_57" d="m420,71l-8,8l8,8l24,0l8,-8l-8,-8l-24,0zm0,0" fill-opacity="0.25" fill="rgb(128, 128, 128)"/>
   <path id="svg_58" d="m378,1l-8,8l8,8l24,0l8,-8l-8,-8l-24,0zm0,0" fill="rgb(0, 208, 255)"/>
   <path id="svg_59" d="m378,71l-8,8l8,8l24,0l8,-8l-8,-8l-24,0zm0,0" fill-opacity="0.25" fill="rgb(128, 128, 128)"/>
   <path id="svg_60" d="m419,88l-8,-8l-8,8l0,52l8,8l8,-8l0,-52zm0,0" fill-opacity="0.25" fill="rgb(128, 128, 128)"/>
   <path id="svg_61" d="m461,88l-8,-8l-8,8l0,52l8,8l8,-8l0,-52zm0,0" fill-opacity="0.25" fill="rgb(128, 128, 128)"/>
   <path id="svg_62" d="m377,88l-8,-8l-8,8l0,52l8,8l8,-8l0,-52zm0,0" fill="rgb(0, 208, 255)"/>
   <path id="svg_63" d="m420,141l-8,8l8,8l24,0l8,-8l-8,-8l-24,0zm0,0" fill="rgb(0, 208, 255)"/>
   <path id="svg_64" d="m378,141l-8,8l8,8l24,0l8,-8l-8,-8l-24,0zm0,0" fill="rgb(0, 208, 255)"/>
   <path id="svg_65" d="m384,19l17,30l0,20l-5,0l-17,-30l0,-20" fill-opacity="0.25" fill="rgb(128, 128, 128)"/>
   <path id="svg_66" d="m438,19l-17,30l0,20l5,0l17,-30l0,-20" fill-opacity="0.25" fill="rgb(128, 128, 128)"/>
   <path id="svg_67" d="m426,89l17,30l0,20l-5,0l-17,-30l0,-20" fill-opacity="0.25" fill="rgb(128, 128, 128)"/>
   <path id="svg_68" d="m396,89l-17,30l0,20l5,0l17,-30l0,-20" fill-opacity="0.25" fill="rgb(128, 128, 128)"/>
  </g>
  <g id="svg_69">
   <path id="svg_70" d="m539,18l-8,-8l-8,8l0,52l8,8l8,-8l0,-52zm0,0" fill-opacity="0.25" fill="rgb(128, 128, 128)"/>
   <path id="svg_71" d="m540,1l-8,8l8,8l24,0l8,-8l-8,-8l-24,0zm0,0" fill="rgb(0, 208, 255)"/>
   <path id="svg_72" d="m581,18l-8,-8l-8,8l0,52l8,8l8,-8l0,-52zm0,0" fill="rgb(0, 208, 255)"/>
   <path id="svg_73" d="m497,18l-8,-8l-8,8l0,52l8,8l8,-8l0,-52zm0,0" fill="rgb(0, 208, 255)"/>
   <path id="svg_74" d="m540,71l-8,8l8,8l24,0l8,-8l-8,-8l-24,0zm0,0" fill="rgb(0, 208, 255)"/>
   <path id="svg_75" d="m498,1l-8,8l8,8l24,0l8,-8l-8,-8l-24,0zm0,0" fill="rgb(0, 208, 255)"/>
   <path id="svg_76" d="m498,71l-8,8l8,8l24,0l8,-8l-8,-8l-24,0zm0,0" fill="rgb(0, 208, 255)"/>
   <path id="svg_77" d="m539,88l-8,-8l-8,8l0,52l8,8l8,-8l0,-52zm0,0" fill-opacity="0.25" fill="rgb(128, 128, 128)"/>
   <path id="svg_78" d="m581,88l-8,-8l-8,8l0,52l8,8l8,-8l0,-52zm0,0" fill-opacity="0.25" fill="rgb(128, 128, 128)"/>
   <path id="svg_79" d="m497,88l-8,-8l-8,8l0,52l8,8l8,-8l0,-52zm0,0" fill="rgb(0, 208, 255)"/>
   <path id="svg_80" d="m540,141l-8,8l8,8l24,0l8,-8l-8,-8l-24,0zm0,0" fill-opacity="0.25" fill="rgb(128, 128, 128)"/>
   <path id="svg_81" d="m498,141l-8,8l8,8l24,0l8,-8l-8,-8l-24,0zm0,0" fill-opacity="0.25" fill="rgb(128, 128, 128)"/>
   <path id="svg_82" d="m504,19l17,30l0,20l-5,0l-17,-30l0,-20" fill-opacity="0.25" fill="rgb(128, 128, 128)"/>
   <path id="svg_83" d="m558,19l-17,30l0,20l5,0l17,-30l0,-20" fill-opacity="0.25" fill="rgb(128, 128, 128)"/>
   <path id="svg_84" d="m546,89l17,30l0,20l-5,0l-17,-30l0,-20" fill="rgb(0, 208, 255)"/>
   <path id="svg_85" d="m516,89l-17,30l0,20l5,0l17,-30l0,-20" fill-opacity="0.25" fill="rgb(128, 128, 128)"/>
  </g>
  <g id="svg_86">
   <path id="svg_87" d="m659,18l-8,-8l-8,8l0,52l8,8l8,-8l0,-52zm0,0" fill-opacity="0.25" fill="rgb(128, 128, 128)"/>
   <path id="svg_88" d="m660,1l-8,8l8,8l24,0l8,-8l-8,-8l-24,0zm0,0" fill="rgb(0, 208, 255)"/>
   <path id="svg_89" d="m701,18l-8,-8l-8,8l0,52l8,8l8,-8l0,-52zm0,0" fill-opacity="0.25" fill="rgb(128, 128, 128)"/>
   <path id="svg_90" d="m617,18l-8,-8l-8,8l0,52l8,8l8,-8l0,-52zm0,0" fill="rgb(0, 208, 255)"/>
   <path id="svg_91" d="m660,71l-8,8l8,8l24,0l8,-8l-8,-8l-24,0zm0,0" fill="rgb(0, 208, 255)"/>
   <path id="svg_92" d="m618,1l-8,8l8,8l24,0l8,-8l-8,-8l-24,0zm0,0" fill="rgb(0, 208, 255)"/>
   <path id="svg_93" d="m618,71l-8,8l8,8l24,0l8,-8l-8,-8l-24,0zm0,0" fill="rgb(0, 208, 255)"/>
   <path id="svg_94" d="m659,88l-8,-8l-8,8l0,52l8,8l8,-8l0,-52zm0,0" fill-opacity="0.25" fill="rgb(128, 128, 128)"/>
   <path id="svg_95" d="m701,88l-8,-8l-8,8l0,52l8,8l8,-8l0,-52zm0,0" fill-opacity="0.25" fill="rgb(128, 128, 128)"/>
   <path id="svg_96" d="m617,88l-8,-8l-8,8l0,52l8,8l8,-8l0,-52zm0,0" fill="rgb(0, 208, 255)"/>
   <path id="svg_97" d="m660,141l-8,8l8,8l24,0l8,-8l-8,-8l-24,0zm0,0" fill="rgb(0, 208, 255)"/>
   <path id="svg_98" d="m618,141l-8,8l8,8l24,0l8,-8l-8,-8l-24,0zm0,0" fill="rgb(0, 208, 255)"/>
   <path id="svg_99" d="m624,19l17,30l0,20l-5,0l-17,-30l0,-20" fill-opacity="0.25" fill="rgb(128, 128, 128)"/>
   <path id="svg_100" d="m678,19l-17,30l0,20l5,0l17,-30l0,-20" fill-opacity="0.25" fill="rgb(128, 128, 128)"/>
   <path id="svg_101" d="m666,89l17,30l0,20l-5,0l-17,-30l0,-20" fill-opacity="0.25" fill="rgb(128, 128, 128)"/>
   <path id="svg_102" d="m636,89l-17,30l0,20l5,0l17,-30l0,-20" fill-opacity="0.25" fill="rgb(128, 128, 128)"/>
  </g>
  <g id="svg_103">
   <path id="svg_104" d="m779,18l-8,-8l-8,8l0,52l8,8l8,-8l0,-52zm0,0" fill-opacity="0.25" fill="rgb(128, 128, 128)"/>
   <path id="svg_105" d="m780,1l-8,8l8,8l24,0l8,-8l-8,-8l-24,0zm0,0" fill-opacity="0.25" fill="rgb(128, 128, 128)"/>
   <path id="svg_106" d="m821,18l-8,-8l-8,8l0,52l8,8l8,-8l0,-52zm0,0" fill="rgb(0, 208, 255)"/>
   <path id="svg_107" d="m737,18l-8,-8l-8,8l0,52l8,8l8,-8l0,-52zm0,0" fill="rgb(0, 208, 255)"/>
   <path id="svg_108" d="m780,71l-8,8l8,8l24,0l8,-8l-8,-8l-24,0zm0,0" fill-opacity="0.25" fill="rgb(128, 128, 128)"/>
   <path id="svg_109" d="m738,1l-8,8l8,8l24,0l8,-8l-8,-8l-24,0zm0,0" fill-opacity="0.25" fill="rgb(128, 128, 128)"/>
   <path id="svg_110" d="m738,71l-8,8l8,8l24,0l8,-8l-8,-8l-24,0zm0,0" fill-opacity="0.25" fill="rgb(128, 128, 128)"/>
   <path id="svg_111" d="m779,88l-8,-8l-8,8l0,52l8,8l8,-8l0,-52zm0,0" fill-opacity="0.25" fill="rgb(128, 128, 128)"/>
   <path id="svg_112" d="m821,88l-8,-8l-8,8l0,52l8,8l8,-8l0,-52zm0,0" fill="rgb(0, 208, 255)"/>
   <path id="svg_113" d="m737,88l-8,-8l-8,8l0,52l8,8l8,-8l0,-52zm0,0" fill="rgb(0, 208, 255)"/>
   <path id="svg_114" d="m780,141l-8,8l8,8l24,0l8,-8l-8,-8l-24,0zm0,0" fill-opacity="0.25" fill="rgb(128, 128, 128)"/>
   <path id="svg_115" d="m738,141l-8,8l8,8l24,0l8,-8l-8,-8l-24,0zm0,0" fill-opacity="0.25" fill="rgb(128, 128, 128)"/>
   <path id="svg_116" d="m744,19l17,30l0,20l-5,0l-17,-30l0,-20" fill="rgb(0, 208, 255)"/>
   <path id="svg_117" d="m798,19l-17,30l0,20l5,0l17,-30l0,-20" fill="rgb(0, 208, 255)"/>
   <path id="svg_118" d="m786,89l17,30l0,20l-5,0l-17,-30l0,-20" fill-opacity="0.25" fill="rgb(128, 128, 128)"/>
   <path id="svg_119" d="m756,89l-17,30l0,20l5,0l17,-30l0,-20" fill-opacity="0.25" fill="rgb(128, 128, 128)"/>
  </g>
  <g id="svg_120">
   <path id="svg_121" d="m899,18l-8,-8l-8,8l0,52l8,8l8,-8l0,-52zm0,0" fill-opacity="0.25" fill="rgb(128, 128, 128)"/>
   <path id="svg_122" d="m900,1l-8,8l8,8l24,0l8,-8l-8,-8l-24,0zm0,0" fill="rgb(0, 208, 255)"/>
   <path id="svg_123" d="m941,18l-8,-8l-8,8l0,52l8,8l8,-8l0,-52zm0,0" fill-opacity="0.25" fill="rgb(128, 128, 128)"/>
   <path id="svg_124" d="m857,18l-8,-8l-8,8l0,52l8,8l8,-8l0,-52zm0,0" fill="rgb(0, 208, 255)"/>
   <path id="svg_125" d="m900,71l-8,8l8,8l24,0l8,-8l-8,-8l-24,0zm0,0" fill="rgb(0, 208, 255)"/>
   <path id="svg_126" d="m858,1l-8,8l8,8l24,0l8,-8l-8,-8l-24,0zm0,0" fill="rgb(0, 208, 255)"/>
   <path id="svg_127" d="m858,71l-8,8l8,8l24,0l8,-8l-8,-8l-24,0zm0,0" fill="rgb(0, 208, 255)"/>
   <path id="svg_128" d="m899,88l-8,-8l-8,8l0,52l8,8l8,-8l0,-52zm0,0" fill-opacity="0.25" fill="rgb(128, 128, 128)"/>
   <path id="svg_129" d="m941,88l-8,-8l-8,8l0,52l8,8l8,-8l0,-52zm0,0" fill-opacity="0.25" fill="rgb(128, 128, 128)"/>
   <path id="svg_130" d="m857,88l-8,-8l-8,8l0,52l8,8l8,-8l0,-52zm0,0" fill="rgb(0, 208, 255)"/>
   <path id="svg_131" d="m900,141l-8,8l8,8l24,0l8,-8l-8,-8l-24,0zm0,0" fill="rgb(0, 208, 255)"/>
   <path id="svg_132" d="m858,141l-8,8l8,8l24,0l8,-8l-8,-8l-24,0zm0,0" fill="rgb(0, 208, 255)"/>
   <path id="svg_133" d="m864,19l17,30l0,20l-5,0l-17,-30l0,-20" fill-opacity="0.25" fill="rgb(128, 128, 128)"/>
   <path id="svg_134" d="m918,19l-17,30l0,20l5,0l17,-30l0,-20" fill-opacity="0.25" fill="rgb(128, 128, 128)"/>
   <path id="svg_135" d="m906,89l17,30l0,20l-5,0l-17,-30l0,-20" fill-opacity="0.25" fill="rgb(128, 128, 128)"/>
   <path id="svg_136" d="m876,89l-17,30l0,20l5,0l17,-30l0,-20" fill-opacity="0.25" fill="rgb(128, 128, 128)"/>
  </g>
  <g id="svg_137">
   <path id="svg_138" d="m1019,18l-8,-8l-8,8l0,52l8,8l8,-8l0,-52zm0,0" fill-opacity="0.25" fill="rgb(128, 128, 128)"/>
   <path id="svg_139" d="m1020,1l-8,8l8,8l24,0l8,-8l-8,-8l-24,0zm0,0" fill-opacity="0.25" fill="rgb(128, 128, 128)"/>
   <path id="svg_140" d="m1061,18l-8,-8l-8,8l0,52l8,8l8,-8l0,-52zm0,0" fill="rgb(0, 208, 255)"/>
   <path id="svg_141" d="m977,18l-8,-8l-8,8l0,52l8,8l8,-8l0,-52zm0,0" fill="rgb(0, 208, 255)"/>
   <path id="svg_142" d="m1020,71l-8,8l8,8l24,0l8,-8l-8,-8l-24,0zm0,0" fill-opacity="0.25" fill="rgb(128, 128, 128)"/>
   <path id="svg_143" d="m978,1l-8,8l8,8l24,0l8,-8l-8,-8l-24,0zm0,0" fill-opacity="0.25" fill="rgb(128, 128, 128)"/>
   <path id="svg_144" d="m978,71l-8,8l8,8l24,0l8,-8l-8,-8l-24,0zm0,0" fill-opacity="0.25" fill="rgb(128, 128, 128)"/>
   <path id="svg_145" d="m1019,88l-8,-8l-8,8l0,52l8,8l8,-8l0,-52zm0,0" fill-opacity="0.25" fill="rgb(128, 128, 128)"/>
   <path id="svg_146" d="m1061,88l-8,-8l-8,8l0,52l8,8l8,-8l0,-52zm0,0" fill="rgb(0, 208, 255)"/>
   <path id="svg_147" d="m977,88l-8,-8l-8,8l0,52l8,8l8,-8l0,-52zm0,0" fill="rgb(0, 208, 255)"/>
   <path id="svg_148" d="m1020,141l-8,8l8,8l24,0l8,-8l-8,-8l-24,0zm0,0" fill-opacity="0.25" fill="rgb(128, 128, 128)"/>
   <path id="svg_149" d="m978,141l-8,8l8,8l24,0l8,-8l-8,-8l-24,0zm0,0" fill-opacity="0.25" fill="rgb(128, 128, 128)"/>
   <path id="svg_150" d="m984,19l17,30l0,20l-5,0l-17,-30l0,-20" fill="rgb(0, 208, 255)"/>
   <path id="svg_151" d="m1038,19l-17,30l0,20l5,0l17,-30l0,-20" fill-opacity="0.25" fill="rgb(128, 128, 128)"/>
   <path id="svg_152" d="m1026,89l17,30l0,20l-5,0l-17,-30l0,-20" fill="rgb(0, 208, 255)"/>
   <path id="svg_153" d="m996,89l-17,30l0,20l5,0l17,-30l0,-20" fill-opacity="0.25" fill="rgb(128, 128, 128)"/>
  </g>
  <g id="svg_154">
   <path id="svg_155" d="m1139,18l-8,-8l-8,8l0,52l8,8l8,-8l0,-52zm0,0" fill="rgb(0, 208, 255)"/>
   <path id="svg_156" d="m1140,1l-8,8l8,8l24,0l8,-8l-8,-8l-24,0zm0,0" fill="rgb(0, 208, 255)"/>
   <path id="svg_157" d="m1181,18l-8,-8l-8,8l0,52l8,8l8,-8l0,-52zm0,0" fill-opacity="0.25" fill="rgb(128, 128, 128)"/>
   <path id="svg_158" d="m1097,18l-8,-8l-8,8l0,52l8,8l8,-8l0,-52zm0,0" fill-opacity="0.25" fill="rgb(128, 128, 128)"/>
   <path id="svg_159" d="m1140,71l-8,8l8,8l24,0l8,-8l-8,-8l-24,0zm0,0" fill-opacity="0.25" fill="rgb(128, 128, 128)"/>
   <path id="svg_160" d="m1098,1l-8,8l8,8l24,0l8,-8l-8,-8l-24,0zm0,0" fill="rgb(0, 208, 255)"/>
   <path id="svg_161" d="m1098,71l-8,8l8,8l24,0l8,-8l-8,-8l-24,0zm0,0" fill-opacity="0.25" fill="rgb(128, 128, 128)"/>
   <path id="svg_162" d="m1139,88l-8,-8l-8,8l0,52l8,8l8,-8l0,-52zm0,0" fill="rgb(0, 208, 255)"/>
   <path id="svg_163" d="m1181,88l-8,-8l-8,8l0,52l8,8l8,-8l0,-52zm0,0" fill-opacity="0.25" fill="rgb(128, 128, 128)"/>
   <path id="svg_164" d="m1097,88l-8,-8l-8,8l0,52l8,8l8,-8l0,-52zm0,0" fill-opacity="0.25" fill="rgb(128, 128, 128)"/>
   <path id="svg_165" d="m1140,141l-8,8l8,8l24,0l8,-8l-8,-8l-24,0zm0,0" fill-opacity="0.25" fill="rgb(128, 128, 128)"/>
   <path id="svg_166" d="m1098,141l-8,8l8,8l24,0l8,-8l-8,-8l-24,0zm0,0" fill-opacity="0.25" fill="rgb(128, 128, 128)"/>
   <path id="svg_167" d="m1104,19l17,30l0,20l-5,0l-17,-30l0,-20" fill-opacity="0.25" fill="rgb(128, 128, 128)"/>
   <path id="svg_168" d="m1158,19l-17,30l0,20l5,0l17,-30l0,-20" fill-opacity="0.25" fill="rgb(128, 128, 128)"/>
   <path id="svg_169" d="m1146,89l17,30l0,20l-5,0l-17,-30l0,-20" fill-opacity="0.25" fill="rgb(128, 128, 128)"/>
   <path id="svg_170" d="m1116,89l-17,30l0,20l5,0l17,-30l0,-20" fill-opacity="0.25" fill="rgb(128, 128, 128)"/>
  </g>
  <g id="svg_171">
   <path id="svg_172" d="m1259,18l-8,-8l-8,8l0,52l8,8l8,-8l0,-52zm0,0" fill-opacity="0.25" fill="rgb(128, 128, 128)"/>
   <path id="svg_173" d="m1260,1l-8,8l8,8l24,0l8,-8l-8,-8l-24,0zm0,0" fill="rgb(0, 208, 255)"/>
   <path id="svg_174" d="m1301,18l-8,-8l-8,8l0,52l8,8l8,-8l0,-52zm0,0" fill="rgb(0, 208, 255)"/>
   <path id="svg_175" d="m1217,18l-8,-8l-8,8l0,52l8,8l8,-8l0,-52zm0,0" fill="rgb(0, 208, 255)"/>
   <path id="svg_176" d="m1260,71l-8,8l8,8l24,0l8,-8l-8,-8l-24,0zm0,0" fill="rgb(0, 208, 255)"/>
   <path id="svg_177" d="m1218,1l-8,8l8,8l24,0l8,-8l-8,-8l-24,0zm0,0" fill="rgb(0, 208, 255)"/>
   <path id="svg_178" d="m1218,71l-8,8l8,8l24,0l8,-8l-8,-8l-24,0zm0,0" fill="rgb(0, 208, 255)"/>
   <path id="svg_179" d="m1259,88l-8,-8l-8,8l0,52l8,8l8,-8l0,-52zm0,0" fill-opacity="0.25" fill="rgb(128, 128, 128)"/>
   <path id="svg_180" d="m1301,88l-8,-8l-8,8l0,52l8,8l8,-8l0,-52zm0,0" fill="rgb(0, 208, 255)"/>
   <path id="svg_181" d="m1217,88l-8,-8l-8,8l0,52l8,8l8,-8l0,-52zm0,0" fill="rgb(0, 208, 255)"/>
   <path id="svg_182" d="m1260,141l-8,8l8,8l24,0l8,-8l-8,-8l-24,0zm0,0" fill-opacity="0.25" fill="rgb(128, 128, 128)"/>
   <path id="svg_183" d="m1218,141l-8,8l8,8l24,0l8,-8l-8,-8l-24,0zm0,0" fill-opacity="0.25" fill="rgb(128, 128, 128)"/>
   <path id="svg_184" d="m1224,19l17,30l0,20l-5,0l-17,-30l0,-20" fill-opacity="0.25" fill="rgb(128, 128, 128)"/>
   <path id="svg_185" d="m1278,19l-17,30l0,20l5,0l17,-30l0,-20" fill-opacity="0.25" fill="rgb(128, 128, 128)"/>
   <path id="svg_186" d="m1266,89l17,30l0,20l-5,0l-17,-30l0,-20" fill-opacity="0.25" fill="rgb(128, 128, 128)"/>
   <path id="svg_187" d="m1236,89l-17,30l0,20l5,0l17,-30l0,-20" fill-opacity="0.25" fill="rgb(128, 128, 128)"/>
  </g>
  <g id="svg_188">
   <path id="svg_189" d="m1379,18l-8,-8l-8,8l0,52l8,8l8,-8l0,-52zm0,0" fill-opacity="0.25" fill="rgb(128, 128, 128)"/>
   <path id="svg_190" d="m1380,1l-8,8l8,8l24,0l8,-8l-8,-8l-24,0zm0,0" fill-opacity="0.25" fill="rgb(128, 128, 128)"/>
   <path id="svg_191" d="m1421,18l-8,-8l-8,8l0,52l8,8l8,-8l0,-52zm0,0" fill-opacity="0.25" fill="rgb(128, 128, 128)"/>
   <path id="svg_192" d="m1337,18l-8,-8l-8,8l0,52l8,8l8,-8l0,-52zm0,0" fill="rgb(0, 208, 255)"/>
   <path id="svg_193" d="m1380,71l-8,8l8,8l24,0l8,-8l-8,-8l-24,0zm0,0" fill-opacity="0.25" fill="rgb(128, 128, 128)"/>
   <path id="svg_194" d="m1338,1l-8,8l8,8l24,0l8,-8l-8,-8l-24,0zm0,0" fill-opacity="0.25" fill="rgb(128, 128, 128)"/>
   <path id="svg_195" d="m1338,71l-8,8l8,8l24,0l8,-8l-8,-8l-24,0zm0,0" fill-opacity="0.25" fill="rgb(128, 128, 128)"/>
   <path id="svg_196" d="m1379,88l-8,-8l-8,8l0,52l8,8l8,-8l0,-52zm0,0" fill-opacity="0.25" fill="rgb(128, 128, 128)"/>
   <path id="svg_197" d="m1421,88l-8,-8l-8,8l0,52l8,8l8,-8l0,-52zm0,0" fill-opacity="0.25" fill="rgb(128, 128, 128)"/>
   <path id="svg_198" d="m1337,88l-8,-8l-8,8l0,52l8,8l8,-8l0,-52zm0,0" fill="rgb(0, 208, 255)"/>
   <path id="svg_199" d="m1380,141l-8,8l8,8l24,0l8,-8l-8,-8l-24,0zm0,0" fill="rgb(0, 208, 255)"/>
   <path id="svg_200" d="m1338,141l-8,8l8,8l24,0l8,-8l-8,-8l-24,0zm0,0" fill="rgb(0, 208, 255)"/>
   <path id="svg_201" d="m1344,19l17,30l0,20l-5,0l-17,-30l0,-20" fill-opacity="0.25" fill="rgb(128, 128, 128)"/>
   <path id="svg_202" d="m1398,19l-17,30l0,20l5,0l17,-30l0,-20" fill-opacity="0.25" fill="rgb(128, 128, 128)"/>
   <path id="svg_203" d="m1386,89l17,30l0,20l-5,0l-17,-30l0,-20" fill-opacity="0.25" fill="rgb(128, 128, 128)"/>
   <path id="svg_204" d="m1356,89l-17,30l0,20l5,0l17,-30l0,-20" fill-opacity="0.25" fill="rgb(128, 128, 128)"/>
  </g>
 </g>
</svg>