<svg width="120.3" height="95.3" xmlns="http://www.w3.org/2000/svg">
 <g>
  <title>background</title>
  <rect fill="none" id="canvas_background" height="97.3" width="122.3" y="-1" x="-1"/>
 </g>
 <g>
  <title>Layer 1</title>
  <path fill="#fff" id="svg_1" d="m120.16772,14.16761l-4.746,0c-1.763,0 -4.254,2.542 -4.254,4.169l0,58.98099c0,1.62901 2.491,3.85001 4.254,3.85001l4.746,0l0,14l-43,0l0,-14l9,0l0,-62l-0.441,0l-21.017,76l-16.27099,0l-20.746,-76l-0.525,0l0,62l9,0l0,14l-36,0l0,-14l4.61,0c1.898,0 4.39,-2.22099 4.39,-3.85001l0,-58.98099c0,-1.627 -2.492,-4.169 -4.39,-4.169l-4.61,0l0,-14l45.016,0l14.77999,55l0.40701,0l14.917,-55l44.88,0l0,14z"/>
 </g>
</svg>
