<?xml version="1.0"?>
<svg width="275" height="224" xmlns="http://www.w3.org/2000/svg">

 <g>
  <title>background</title>
  <rect fill="none" id="canvas_background" height="226" width="277" y="-1" x="-1"/>
 </g>
 <g>
  <title>Layer 1</title>
  <path id="svg_1" d="m274.389038,27.300995c-10.059082,4.460999 -20.868042,7.47699 -32.215027,8.832001c11.580994,-6.94101 20.475037,-17.93399 24.662048,-31.031006c-10.837036,6.428009 -22.841003,11.096008 -35.617065,13.610992c-10.230957,-10.901001 -24.80896,-17.712982 -40.939941,-17.712982c-30.978027,0 -56.091003,25.113007 -56.091003,56.087982c0,4.396027 0.495911,8.677002 1.451965,12.782013c-46.61499,-2.338989 -87.94397,-24.669006 -115.608002,-58.604004c-4.828003,8.283997 -7.593994,17.919006 -7.593994,28.197998c0,19.459015 9.901978,36.627014 24.951996,46.686005c-9.194,-0.290985 -17.843018,-2.813995 -25.404999,-7.015991c-0.003998,0.234009 -0.005005,0.468994 -0.005005,0.704987c0,27.175995 19.333984,49.846008 44.993011,54.998993c-4.707031,1.281006 -9.662048,1.96701 -14.777039,1.96701c-3.613953,0 -7.127991,-0.35199 -10.552979,-1.005981c7.138,22.28299 27.85199,38.5 52.396057,38.952972c-19.196106,15.042999 -43.381104,24.01001 -69.659058,24.01001c-4.527008,0 -8.992004,-0.265991 -13.380005,-0.78299c24.822021,15.914001 54.305054,25.199005 85.979004,25.199005c103.168945,0 159.584961,-85.46701 159.584961,-159.585999c0,-2.432007 -0.054932,-4.851013 -0.161987,-7.256012c10.958069,-7.90802 20.467041,-17.787018 27.987061,-29.035004z" fill="#5FA9DD"/>
 </g>
</svg>